<?xml version="1.0" standalone="no"?>
<!DOCTYPE svg PUBLIC "-//W3C//DTD SVG 20010904//EN"
 "http://www.w3.org/TR/2001/REC-SVG-20010904/DTD/svg10.dtd">
<svg version="1.0" xmlns="http://www.w3.org/2000/svg"
 width="235.000000pt" height="235.000000pt" viewBox="0 0 235.000000 235.000000"
 preserveAspectRatio="xMidYMid meet">
<metadata>
Created by potrace 1.14, written by Peter Selinger 2001-2017
</metadata>
<g transform="translate(0.000000,235.000000) scale(0.100000,-0.100000)"
fill="#000000" stroke="none">
<path d="M773 1540 c-39 -5 -55 -17 -201 -163 -87 -86 -162 -154 -166 -150 -4
5 -6 3 -4 -3 1 -6 -68 -81 -156 -167 l-159 -157 90 0 89 0 217 213 c119 118
217 211 217 209 0 -3 11 9 24 27 13 18 27 28 30 23 3 -5 5 -86 4 -181 l-1
-171 -111 1 c-61 0 -133 0 -160 0 l-48 -1 7 -37 c4 -21 9 -45 10 -53 2 -8 4
-18 4 -22 1 -5 150 -8 331 -8 344 0 375 3 416 45 31 30 52 87 48 129 -8 87
-38 118 -146 155 -40 13 -55 24 -62 44 -19 52 -23 52 490 52 l474 1 1 -81 c0
-44 0 -140 0 -212 l0 -133 63 0 63 0 -1 273 -1 272 -554 2 c-551 2 -554 2
-593 -19 -70 -40 -97 -140 -57 -219 20 -41 43 -58 114 -83 84 -31 106 -62 63
-90 -24 -16 -217 -23 -219 -8 -1 4 -3 120 -4 257 -1 138 -3 252 -4 255 0 3
-16 5 -33 5 -18 0 -52 -2 -75 -5z"/>
<path d="M1405 1231 c-11 -4 -29 -11 -40 -15 -32 -12 -74 -74 -81 -121 -20
-137 115 -236 240 -175 60 29 91 80 91 151 0 49 -5 63 -31 96 -17 21 -42 43
-55 50 -33 16 -99 24 -124 14z m154 -76 c24 -31 37 -83 24 -96 -6 -6 -10 2
-11 21 0 17 -12 47 -27 66 -14 19 -22 34 -16 34 5 0 19 -11 30 -25z m-31 -40
c15 -33 15 -45 0 -45 -6 0 -9 3 -5 6 3 4 0 19 -9 35 -8 16 -11 29 -6 29 5 0
14 -11 20 -25z m-47 -21 c34 -31 -11 -85 -53 -62 -21 10 -25 64 -5 71 23 10
40 7 58 -9z"/>
<path d="M1654 1232 c-16 -11 -9 -203 9 -237 57 -110 202 -129 280 -36 35 42
45 87 43 191 l-2 85 -62 1 -62 2 0 -93 c0 -81 -3 -94 -21 -111 -23 -21 -25
-20 -51 3 -15 13 -18 33 -18 109 l0 93 -53 0 c-29 0 -58 -3 -63 -7z"/>
</g>
</svg>
